<?xml version="1.0" encoding="utf-8"?>
<svg xmlns="http://www.w3.org/2000/svg" viewBox="0 0 32 32" width="512" height="512">
  <path d="M16 5C12.144531 5 9 8.144531 9 12C9 14.40625 10.230469 16.539063 12.089844 17.796875C8.515625 19.324219 6 22.875 6 27L8 27C8 24.761719 8.910156 22.746094 10.386719 21.296875L12.785156 24.34375L16.554688 21.832031L15.445313 20.167969L13.214844 21.65625L11.980469 20.085938C13.160156 19.398438 14.53125 19 16 19C19.855469 19 23 15.855469 23 12C23 8.144531 19.855469 5 16 5 Z M 16 7C18.773438 7 21 9.226563 21 12C21 14.773438 18.773438 17 16 17C13.226563 17 11 14.773438 11 12C11 9.226563 13.226563 7 16 7 Z M 24 18L24 20.109375C23.367188 20.238281 22.78125 20.496094 22.261719 20.84375L20.753906 19.34375L19.34375 20.757813L20.84375 22.253906C20.492188 22.78125 20.230469 23.363281 20.101563 24L18 24L18 26L20.101563 26C20.230469 26.636719 20.492188 27.21875 20.84375 27.746094L19.34375 29.242188L20.753906 30.65625L22.261719 29.15625C22.78125 29.503906 23.367188 29.761719 24 29.890625L24 32L26 32L26 29.890625C26.632813 29.761719 27.21875 29.503906 27.738281 29.15625L29.246094 30.65625L30.65625 29.242188L29.15625 27.746094C29.507813 27.21875 29.769531 26.636719 29.898438 26L32 26L32 24L29.898438 24C29.769531 23.363281 29.507813 22.78125 29.15625 22.253906L30.65625 20.757813L29.246094 19.34375L27.738281 20.84375C27.21875 20.496094 26.632813 20.238281 26 20.109375L26 18 Z M 25 22C26.667969 22 28 23.332031 28 25C28 26.667969 26.667969 28 25 28C23.332031 28 22 26.667969 22 25C22 23.332031 23.332031 22 25 22 Z M 25 24C24.449219 24 24 24.449219 24 25C24 25.550781 24.449219 26 25 26C25.550781 26 26 25.550781 26 25C26 24.449219 25.550781 24 25 24Z" fill="#7F1D1D" />
</svg>