<svg width="177" height="49" viewBox="0 0 177 49" fill="none" xmlns="http://www.w3.org/2000/svg">
<path d="M33.9991 11.0391H28.0886C27.9806 10.2744 27.7602 9.59517 27.4274 9.00142C27.0945 8.39867 26.6672 7.88589 26.1454 7.46307C25.6236 7.04024 25.0209 6.71638 24.3372 6.49148C23.6625 6.26657 22.9293 6.15412 22.1376 6.15412C20.7072 6.15412 19.4612 6.50947 18.3997 7.22017C17.3381 7.92187 16.515 8.94744 15.9302 10.2969C15.3455 11.6373 15.0531 13.2656 15.0531 15.1818C15.0531 17.152 15.3455 18.8073 15.9302 20.1477C16.524 21.4882 17.3516 22.5002 18.4132 23.1839C19.4747 23.8677 20.7027 24.2095 22.0971 24.2095C22.8798 24.2095 23.604 24.1061 24.2697 23.8991C24.9444 23.6922 25.5427 23.3909 26.0645 22.995C26.5862 22.5902 27.0181 22.0999 27.3599 21.5241C27.7108 20.9484 27.9537 20.2917 28.0886 19.554L33.9991 19.581C33.8462 20.8494 33.4638 22.0729 32.8521 23.2514C32.2493 24.4209 31.4352 25.469 30.4096 26.3956C29.3931 27.3132 28.1786 28.0419 26.7662 28.5817C25.3627 29.1125 23.7749 29.3778 22.0027 29.3778C19.5377 29.3778 17.3336 28.8201 15.3904 27.7045C13.4563 26.589 11.9269 24.9742 10.8024 22.8601C9.68685 20.746 9.12908 18.1866 9.12908 15.1818C9.12908 12.1681 9.69585 9.60417 10.8294 7.49006C11.9629 5.37595 13.5012 3.76562 15.4444 2.65909C17.3876 1.54356 19.5737 0.985794 22.0027 0.985794C23.604 0.985794 25.0884 1.2107 26.4558 1.66051C27.8322 2.11032 29.0512 2.76704 30.1127 3.63068C31.1743 4.48532 32.0379 5.53338 32.7037 6.77486C33.3784 8.01633 33.8102 9.43774 33.9991 11.0391Z" fill="white"/>
<path d="M73.682 1.36364L80.3617 22.3608H80.6181L87.3113 1.36364H93.7885L84.2615 29H76.7317L67.1912 1.36364H73.682Z" fill="white"/>
<path d="M111.444 9.31179C111.336 8.22325 110.873 7.3776 110.054 6.77486C109.235 6.17211 108.124 5.87074 106.721 5.87074C105.767 5.87074 104.962 6.00568 104.305 6.27557C103.649 6.53646 103.145 6.9008 102.794 7.36861C102.452 7.83641 102.281 8.36719 102.281 8.96094C102.263 9.45573 102.367 9.88755 102.592 10.2564C102.826 10.6252 103.145 10.9446 103.55 11.2145C103.955 11.4754 104.422 11.7048 104.953 11.9027C105.484 12.0916 106.051 12.2536 106.653 12.3885L109.136 12.9822C110.342 13.2521 111.448 13.612 112.456 14.0618C113.464 14.5116 114.336 15.0649 115.074 15.7216C115.812 16.3783 116.383 17.152 116.788 18.0426C117.202 18.9332 117.413 19.9543 117.422 21.1058C117.413 22.7971 116.981 24.2635 116.127 25.505C115.281 26.7375 114.057 27.6955 112.456 28.3793C110.864 29.054 108.943 29.3913 106.694 29.3913C104.463 29.3913 102.52 29.0495 100.864 28.3658C99.2181 27.6821 97.9317 26.67 97.0051 25.3295C96.0874 23.9801 95.6061 22.3113 95.5612 20.3232H101.215C101.278 21.2498 101.544 22.0234 102.011 22.6442C102.488 23.2559 103.122 23.7192 103.914 24.0341C104.715 24.34 105.619 24.4929 106.627 24.4929C107.616 24.4929 108.475 24.349 109.204 24.0611C109.942 23.7732 110.513 23.3729 110.918 22.8601C111.323 22.3473 111.525 21.758 111.525 21.0923C111.525 20.4716 111.341 19.9498 110.972 19.527C110.612 19.1042 110.081 18.7443 109.379 18.4474C108.687 18.1506 107.836 17.8807 106.829 17.6378L103.82 16.8821C101.49 16.3153 99.6499 15.4292 98.3005 14.2237C96.9511 13.0182 96.2809 11.3944 96.2899 9.35227C96.2809 7.67898 96.7262 6.21709 97.6258 4.96662C98.5344 3.71615 99.7804 2.74006 101.364 2.03835C102.947 1.33665 104.746 0.985794 106.761 0.985794C108.813 0.985794 110.603 1.33665 112.132 2.03835C113.671 2.74006 114.867 3.71615 115.722 4.96662C116.576 6.21709 117.017 7.66548 117.044 9.31179H111.444Z" fill="white"/>
<path d="M66.143 14.4842L65.0242 13.8134C64.5479 13.5278 64.2254 13.0564 64.0802 12.521C64.0777 12.5111 64.0752 12.5013 64.0716 12.4914C63.9226 11.9511 63.9669 11.375 64.2389 10.8839L64.8728 9.7429C65.5202 8.57604 64.6907 7.13963 63.3564 7.11747L62.0395 7.09531C61.4819 7.08547 60.9649 6.83806 60.5711 6.44419C60.5674 6.4405 60.5625 6.43557 60.5588 6.43188C60.1637 6.038 59.9163 5.52104 59.9077 4.96346L59.8855 3.64643C59.8621 2.30972 58.4257 1.48011 57.2589 2.12878L56.1179 2.76267C55.6281 3.03469 55.052 3.07901 54.5105 2.93007C54.5006 2.92761 54.4908 2.92515 54.4809 2.92146C53.9455 2.77498 53.4741 2.45373 53.1886 1.97738L52.5178 0.858527C51.831 -0.286176 50.173 -0.286176 49.4862 0.858527L48.8179 1.97246C48.5299 2.4525 48.0548 2.77621 47.5157 2.92392C47.5095 2.92515 47.5046 2.92761 47.4984 2.92884C46.9532 3.07901 46.3735 3.03469 45.8787 2.76021L44.7414 2.12878C43.5746 1.48011 42.1382 2.30972 42.116 3.64397L42.0939 4.961C42.084 5.51858 41.8366 6.03554 41.4428 6.42942C41.4391 6.43311 41.4342 6.43803 41.4305 6.44173C41.0366 6.83683 40.5197 7.08424 39.9621 7.09285L38.6451 7.11501C37.3096 7.1384 36.4801 8.57481 37.1287 9.74167L37.7626 10.8827C38.0346 11.3738 38.0789 11.9486 37.93 12.4902C37.9275 12.5 37.9251 12.5099 37.9214 12.5197C37.7749 13.0552 37.4537 13.5266 36.9773 13.8121L35.8585 14.483C34.7138 15.1698 34.7138 16.829 35.8585 17.5146L36.9773 18.1866C37.4537 18.4722 37.7761 18.9436 37.9214 19.479C37.9238 19.4889 37.9263 19.4987 37.93 19.5086C38.0789 20.0502 38.0346 20.625 37.7626 21.1161L37.1287 22.2596C36.4813 23.4264 37.3109 24.8628 38.6451 24.885L39.9621 24.9071C40.5197 24.917 41.0366 25.1644 41.4305 25.5583C41.4342 25.562 41.4391 25.5669 41.4428 25.5706C41.8379 25.9645 42.0853 26.4814 42.0939 27.039L42.116 28.3548C42.1382 29.6891 43.5746 30.5187 44.7414 29.8712L45.8824 29.2373C46.3722 28.9653 46.9483 28.921 47.4898 29.0699C47.4997 29.0724 47.5095 29.0748 47.5194 29.0785C48.0548 29.225 48.5262 29.5463 48.8117 30.0226L49.4825 31.1415C50.1693 32.2862 51.8273 32.2862 52.5141 31.1415L53.1849 30.0226C53.4704 29.5463 53.9418 29.2238 54.4772 29.0785C54.4871 29.0761 54.4969 29.0736 54.5068 29.0699C55.0471 28.921 55.6231 28.9653 56.1142 29.2373L57.2552 29.8712C58.4221 30.5187 59.8584 29.6891 59.8806 28.3548L59.9027 27.039C59.9126 26.4814 60.16 25.9645 60.5538 25.5706C60.5575 25.5669 60.5625 25.562 60.5662 25.5583C60.96 25.1632 61.477 24.9158 62.0345 24.9071L63.3515 24.885C64.6857 24.8628 65.5153 23.4264 64.8679 22.2596L64.234 21.1185C63.962 20.6274 63.9177 20.0526 64.0666 19.511C64.0691 19.5012 64.0716 19.4913 64.0752 19.4815C64.2217 18.9461 64.543 18.4747 65.0193 18.1891L66.1381 17.517C67.2865 16.8302 67.2865 15.171 66.143 14.4842ZM58.0245 13.1782L49.9503 21.2527C49.7189 21.4841 49.4062 21.6134 49.0801 21.6134C48.7539 21.6134 48.44 21.4841 48.2099 21.2527L43.9598 17.0025C43.4786 16.5213 43.4786 15.7434 43.9598 15.2621C44.4411 14.7808 45.219 14.7808 45.7002 15.2621L49.0801 18.642L56.2841 11.4378C56.7654 10.9565 57.5432 10.9565 58.0245 11.4378C58.5057 11.9191 58.5057 12.697 58.0245 13.1782Z" fill="white"/>
<path d="M17.5474 40.5H16.5786C16.5213 40.2214 16.4211 39.9766 16.2778 39.7656C16.1372 39.5547 15.9653 39.3776 15.7622 39.2344C15.5617 39.0885 15.339 38.9792 15.0942 38.9062C14.8494 38.8333 14.5942 38.7969 14.3286 38.7969C13.8442 38.7969 13.4054 38.9193 13.0122 39.1641C12.6216 39.4089 12.3104 39.7695 12.0786 40.2461C11.8494 40.7227 11.7349 41.3073 11.7349 42C11.7349 42.6927 11.8494 43.2773 12.0786 43.7539C12.3104 44.2305 12.6216 44.5911 13.0122 44.8359C13.4054 45.0807 13.8442 45.2031 14.3286 45.2031C14.5942 45.2031 14.8494 45.1667 15.0942 45.0937C15.339 45.0208 15.5617 44.9128 15.7622 44.7695C15.9653 44.6237 16.1372 44.4453 16.2778 44.2344C16.4211 44.0208 16.5213 43.776 16.5786 43.5H17.5474C17.4744 43.9089 17.3416 44.2747 17.1489 44.5977C16.9562 44.9206 16.7166 45.1953 16.4302 45.4219C16.1437 45.6458 15.8221 45.8164 15.4653 45.9336C15.1112 46.0508 14.7323 46.1094 14.3286 46.1094C13.6463 46.1094 13.0396 45.9427 12.5083 45.6094C11.9771 45.276 11.5591 44.8021 11.2544 44.1875C10.9497 43.5729 10.7974 42.8437 10.7974 42C10.7974 41.1562 10.9497 40.4271 11.2544 39.8125C11.5591 39.1979 11.9771 38.724 12.5083 38.3906C13.0396 38.0573 13.6463 37.8906 14.3286 37.8906C14.7323 37.8906 15.1112 37.9492 15.4653 38.0664C15.8221 38.1836 16.1437 38.3555 16.4302 38.582C16.7166 38.806 16.9562 39.0794 17.1489 39.4023C17.3416 39.7227 17.4744 40.0885 17.5474 40.5ZM20.7534 46.1406C20.3732 46.1406 20.0282 46.069 19.7183 45.9258C19.4084 45.7799 19.1623 45.5703 18.98 45.2969C18.7977 45.0208 18.7065 44.6875 18.7065 44.2969C18.7065 43.9531 18.7743 43.6745 18.9097 43.4609C19.0451 43.2448 19.2261 43.0755 19.4526 42.9531C19.6792 42.8307 19.9292 42.7396 20.2026 42.6797C20.4787 42.6172 20.756 42.5677 21.0347 42.5313C21.3993 42.4844 21.6948 42.4492 21.9214 42.4258C22.1506 42.3997 22.3172 42.3568 22.4214 42.2969C22.5282 42.237 22.5815 42.1328 22.5815 41.9844V41.9531C22.5815 41.5677 22.4761 41.2682 22.2651 41.0547C22.0568 40.8411 21.7404 40.7344 21.3159 40.7344C20.8758 40.7344 20.5308 40.8307 20.2808 41.0234C20.0308 41.2161 19.855 41.4219 19.7534 41.6406L18.8784 41.3281C19.0347 40.9635 19.243 40.6797 19.5034 40.4766C19.7664 40.2708 20.0529 40.1276 20.3628 40.0469C20.6753 39.9635 20.9826 39.9219 21.2847 39.9219C21.4774 39.9219 21.6987 39.9453 21.9487 39.9922C22.2013 40.0365 22.4448 40.1289 22.6792 40.2695C22.9162 40.4102 23.1128 40.6224 23.269 40.9062C23.4253 41.1901 23.5034 41.5703 23.5034 42.0469V46H22.5815V45.1875H22.5347C22.4722 45.3177 22.368 45.457 22.2222 45.6055C22.0763 45.7539 21.8823 45.8802 21.6401 45.9844C21.3979 46.0885 21.1024 46.1406 20.7534 46.1406ZM20.894 45.3125C21.2586 45.3125 21.5659 45.2409 21.8159 45.0977C22.0685 44.9544 22.2586 44.7695 22.3862 44.543C22.5164 44.3164 22.5815 44.0781 22.5815 43.8281V42.9844C22.5425 43.0312 22.4565 43.0742 22.3237 43.1133C22.1935 43.1497 22.0425 43.1823 21.8706 43.2109C21.7013 43.237 21.536 43.2604 21.3745 43.2812C21.2157 43.2995 21.0868 43.3151 20.9878 43.3281C20.7482 43.3594 20.5243 43.4102 20.3159 43.4805C20.1102 43.5482 19.9435 43.651 19.8159 43.7891C19.6909 43.9245 19.6284 44.1094 19.6284 44.3437C19.6284 44.6641 19.7469 44.9062 19.9839 45.0703C20.2235 45.2318 20.5269 45.3125 20.894 45.3125ZM25.186 46V40H26.0767V40.9375H26.1548C26.2798 40.6172 26.4816 40.3685 26.7603 40.1914C27.0389 40.0117 27.3735 39.9219 27.7642 39.9219C28.16 39.9219 28.4894 40.0117 28.7524 40.1914C29.0181 40.3685 29.2251 40.6172 29.3735 40.9375H29.436C29.5897 40.6276 29.8201 40.3815 30.1274 40.1992C30.4347 40.0143 30.8032 39.9219 31.2329 39.9219C31.7694 39.9219 32.2082 40.0898 32.5493 40.4258C32.8905 40.7591 33.061 41.2786 33.061 41.9844V46H32.1392V41.9844C32.1392 41.5417 32.0181 41.2253 31.7759 41.0352C31.5337 40.8451 31.2485 40.75 30.9204 40.75C30.4985 40.75 30.1717 40.8776 29.9399 41.1328C29.7082 41.3854 29.5923 41.7057 29.5923 42.0937V46H28.6548V41.8906C28.6548 41.5495 28.5441 41.2747 28.3228 41.0664C28.1014 40.8555 27.8162 40.75 27.4673 40.75C27.2277 40.75 27.0037 40.8138 26.7954 40.9414C26.5897 41.069 26.423 41.2461 26.2954 41.4727C26.1704 41.6966 26.1079 41.9557 26.1079 42.25V46H25.186ZM34.7466 48.25V40H35.6372V40.9531H35.7466C35.8143 40.849 35.908 40.7161 36.0278 40.5547C36.1502 40.3906 36.3247 40.2448 36.5513 40.1172C36.7804 39.987 37.0903 39.9219 37.481 39.9219C37.9862 39.9219 38.4315 40.0482 38.8169 40.3008C39.2023 40.5534 39.5031 40.9115 39.7192 41.375C39.9354 41.8385 40.0435 42.3854 40.0435 43.0156C40.0435 43.651 39.9354 44.2018 39.7192 44.668C39.5031 45.1315 39.2036 45.4909 38.8208 45.7461C38.438 45.9987 37.9966 46.125 37.4966 46.125C37.1112 46.125 36.8026 46.0612 36.5708 45.9336C36.339 45.8034 36.1606 45.6562 36.0356 45.4922C35.9106 45.3255 35.8143 45.1875 35.7466 45.0781H35.6685V48.25H34.7466ZM35.6528 43C35.6528 43.4531 35.7192 43.8529 35.8521 44.1992C35.9849 44.543 36.1789 44.8125 36.4341 45.0078C36.6893 45.2005 37.0018 45.2969 37.3716 45.2969C37.757 45.2969 38.0786 45.1953 38.3364 44.9922C38.5968 44.7865 38.7922 44.5104 38.9224 44.1641C39.0552 43.8151 39.1216 43.4271 39.1216 43C39.1216 42.5781 39.0565 42.1979 38.9263 41.8594C38.7987 41.5182 38.6047 41.2487 38.3442 41.0508C38.0864 40.8503 37.7622 40.75 37.3716 40.75C36.9966 40.75 36.6815 40.8451 36.4263 41.0352C36.1711 41.2227 35.9784 41.4857 35.8481 41.8242C35.7179 42.1602 35.6528 42.5521 35.6528 43ZM45.231 43.5469V40H46.1528V46H45.231V44.9844H45.1685C45.0278 45.2891 44.8091 45.5482 44.5122 45.7617C44.2153 45.9727 43.8403 46.0781 43.3872 46.0781C43.0122 46.0781 42.6789 45.9961 42.3872 45.832C42.0955 45.6654 41.8664 45.4154 41.6997 45.082C41.533 44.7461 41.4497 44.3229 41.4497 43.8125V40H42.3716V43.75C42.3716 44.1875 42.494 44.5365 42.7388 44.7969C42.9862 45.0573 43.3013 45.1875 43.6841 45.1875C43.9132 45.1875 44.1463 45.1289 44.3833 45.0117C44.6229 44.8945 44.8234 44.7148 44.9849 44.4727C45.1489 44.2305 45.231 43.9219 45.231 43.5469ZM52.0913 41.3437L51.2632 41.5781C51.2111 41.4401 51.1343 41.306 51.0327 41.1758C50.9338 41.043 50.7983 40.9336 50.6265 40.8477C50.4546 40.7617 50.2345 40.7187 49.9663 40.7187C49.5991 40.7187 49.2931 40.8034 49.0483 40.9727C48.8062 41.1393 48.6851 41.3516 48.6851 41.6094C48.6851 41.8385 48.7684 42.0195 48.9351 42.1523C49.1017 42.2852 49.3621 42.3958 49.7163 42.4844L50.6069 42.7031C51.1434 42.8333 51.5431 43.0326 51.8062 43.3008C52.0692 43.5664 52.2007 43.9089 52.2007 44.3281C52.2007 44.6719 52.1017 44.9792 51.9038 45.25C51.7085 45.5208 51.4351 45.7344 51.0835 45.8906C50.7319 46.0469 50.3231 46.125 49.8569 46.125C49.245 46.125 48.7384 45.9922 48.3374 45.7266C47.9364 45.4609 47.6825 45.0729 47.5757 44.5625L48.4507 44.3437C48.534 44.6667 48.6916 44.9089 48.9233 45.0703C49.1577 45.2318 49.4637 45.3125 49.8413 45.3125C50.271 45.3125 50.6121 45.2214 50.8647 45.0391C51.12 44.8542 51.2476 44.6328 51.2476 44.375C51.2476 44.1667 51.1746 43.9922 51.0288 43.8516C50.883 43.7083 50.659 43.6016 50.3569 43.5312L49.3569 43.2969C48.8075 43.1667 48.4038 42.9648 48.146 42.6914C47.8908 42.4154 47.7632 42.0703 47.7632 41.6562C47.7632 41.3177 47.8582 41.0182 48.0483 40.7578C48.241 40.4974 48.5028 40.293 48.8335 40.1445C49.1668 39.9961 49.5444 39.9219 49.9663 39.9219C50.5601 39.9219 51.0262 40.0521 51.3647 40.3125C51.7059 40.5729 51.9481 40.9167 52.0913 41.3437ZM63.5571 42C63.5571 42.8437 63.4048 43.5729 63.1001 44.1875C62.7954 44.8021 62.3774 45.276 61.8462 45.6094C61.3149 45.9427 60.7082 46.1094 60.0259 46.1094C59.3436 46.1094 58.7368 45.9427 58.2056 45.6094C57.6743 45.276 57.2563 44.8021 56.9517 44.1875C56.647 43.5729 56.4946 42.8437 56.4946 42C56.4946 41.1562 56.647 40.4271 56.9517 39.8125C57.2563 39.1979 57.6743 38.724 58.2056 38.3906C58.7368 38.0573 59.3436 37.8906 60.0259 37.8906C60.7082 37.8906 61.3149 38.0573 61.8462 38.3906C62.3774 38.724 62.7954 39.1979 63.1001 39.8125C63.4048 40.4271 63.5571 41.1562 63.5571 42ZM62.6196 42C62.6196 41.3073 62.5037 40.7227 62.272 40.2461C62.0428 39.7695 61.7316 39.4089 61.3384 39.1641C60.9478 38.9193 60.5103 38.7969 60.0259 38.7969C59.5415 38.7969 59.1027 38.9193 58.7095 39.1641C58.3188 39.4089 58.0076 39.7695 57.7759 40.2461C57.5467 40.7227 57.4321 41.3073 57.4321 42C57.4321 42.6927 57.5467 43.2773 57.7759 43.7539C58.0076 44.2305 58.3188 44.5911 58.7095 44.8359C59.1027 45.0807 59.5415 45.2031 60.0259 45.2031C60.5103 45.2031 60.9478 45.0807 61.3384 44.8359C61.7316 44.5911 62.0428 44.2305 62.272 43.7539C62.5037 43.2773 62.6196 42.6927 62.6196 42ZM65.9829 42.3906V46H65.061V40H65.9517V40.9375H66.0298C66.1704 40.6328 66.384 40.388 66.6704 40.2031C66.9569 40.0156 67.3267 39.9219 67.7798 39.9219C68.186 39.9219 68.5415 40.0052 68.8462 40.1719C69.1509 40.3359 69.3879 40.5859 69.5571 40.9219C69.7264 41.2552 69.811 41.6771 69.811 42.1875V46H68.8892V42.25C68.8892 41.7786 68.7668 41.4115 68.522 41.1484C68.2772 40.8828 67.9412 40.75 67.5142 40.75C67.2199 40.75 66.9569 40.8138 66.7251 40.9414C66.4959 41.069 66.3149 41.2552 66.1821 41.5C66.0493 41.7448 65.9829 42.0417 65.9829 42.3906ZM72.4175 38V46H71.4956V38H72.4175ZM74.106 46V40H75.0278V46H74.106ZM74.5747 39C74.395 39 74.2401 38.9388 74.1099 38.8164C73.9823 38.694 73.9185 38.5469 73.9185 38.375C73.9185 38.2031 73.9823 38.056 74.1099 37.9336C74.2401 37.8112 74.395 37.75 74.5747 37.75C74.7544 37.75 74.908 37.8112 75.0356 37.9336C75.1659 38.056 75.231 38.2031 75.231 38.375C75.231 38.5469 75.1659 38.694 75.0356 38.8164C74.908 38.9388 74.7544 39 74.5747 39ZM77.6382 42.3906V46H76.7163V40H77.6069V40.9375H77.6851C77.8257 40.6328 78.0392 40.388 78.3257 40.2031C78.6121 40.0156 78.9819 39.9219 79.4351 39.9219C79.8413 39.9219 80.1968 40.0052 80.5015 40.1719C80.8062 40.3359 81.0431 40.5859 81.2124 40.9219C81.3817 41.2552 81.4663 41.6771 81.4663 42.1875V46H80.5444V42.25C80.5444 41.7786 80.422 41.4115 80.1772 41.1484C79.9325 40.8828 79.5965 40.75 79.1694 40.75C78.8752 40.75 78.6121 40.8138 78.3804 40.9414C78.1512 41.069 77.9702 41.2552 77.8374 41.5C77.7046 41.7448 77.6382 42.0417 77.6382 42.3906ZM85.6665 46.125C85.0884 46.125 84.5897 45.9974 84.1704 45.7422C83.7537 45.4844 83.4321 45.125 83.2056 44.6641C82.9816 44.2005 82.8696 43.6615 82.8696 43.0469C82.8696 42.4323 82.9816 41.8906 83.2056 41.4219C83.4321 40.9505 83.7472 40.5833 84.1509 40.3203C84.5571 40.0547 85.0311 39.9219 85.5728 39.9219C85.8853 39.9219 86.1938 39.974 86.4985 40.0781C86.8032 40.1823 87.0806 40.3516 87.3306 40.5859C87.5806 40.8177 87.7798 41.125 87.9282 41.5078C88.0767 41.8906 88.1509 42.362 88.1509 42.9219V43.3125H83.5259V42.5156H87.2134C87.2134 42.1771 87.1457 41.875 87.0103 41.6094C86.8774 41.3437 86.6873 41.1341 86.4399 40.9805C86.1951 40.8268 85.9061 40.75 85.5728 40.75C85.2056 40.75 84.8879 40.8411 84.6196 41.0234C84.354 41.2031 84.1496 41.4375 84.0063 41.7266C83.8631 42.0156 83.7915 42.3255 83.7915 42.6562V43.1875C83.7915 43.6406 83.8696 44.0247 84.0259 44.3398C84.1847 44.6523 84.4048 44.8906 84.686 45.0547C84.9673 45.2161 85.2941 45.2969 85.6665 45.2969C85.9087 45.2969 86.1274 45.263 86.3228 45.1953C86.5207 45.125 86.6912 45.0208 86.8345 44.8828C86.9777 44.7422 87.0884 44.5677 87.1665 44.3594L88.0571 44.6094C87.9634 44.9115 87.8058 45.1771 87.5845 45.4062C87.3631 45.6328 87.0897 45.8099 86.7642 45.9375C86.4386 46.0625 86.0728 46.125 85.6665 46.125ZM93.1001 38L95.4751 44.7344H95.5688L97.9438 38H98.9595L96.022 46H95.022L92.0845 38H93.1001ZM101.959 46.125C101.418 46.125 100.943 45.9961 100.534 45.7383C100.127 45.4805 99.8097 45.1198 99.5806 44.6562C99.354 44.1927 99.2407 43.651 99.2407 43.0312C99.2407 42.4062 99.354 41.8607 99.5806 41.3945C99.8097 40.9284 100.127 40.5664 100.534 40.3086C100.943 40.0508 101.418 39.9219 101.959 39.9219C102.501 39.9219 102.975 40.0508 103.381 40.3086C103.79 40.5664 104.108 40.9284 104.334 41.3945C104.564 41.8607 104.678 42.4062 104.678 43.0312C104.678 43.651 104.564 44.1927 104.334 44.6562C104.108 45.1198 103.79 45.4805 103.381 45.7383C102.975 45.9961 102.501 46.125 101.959 46.125ZM101.959 45.2969C102.371 45.2969 102.709 45.1914 102.975 44.9805C103.241 44.7695 103.437 44.4922 103.565 44.1484C103.693 43.8047 103.756 43.4323 103.756 43.0312C103.756 42.6302 103.693 42.2565 103.565 41.9102C103.437 41.5638 103.241 41.2839 102.975 41.0703C102.709 40.8568 102.371 40.75 101.959 40.75C101.548 40.75 101.209 40.8568 100.944 41.0703C100.678 41.2839 100.482 41.5638 100.354 41.9102C100.226 42.2565 100.163 42.6302 100.163 43.0312C100.163 43.4323 100.226 43.8047 100.354 44.1484C100.482 44.4922 100.678 44.7695 100.944 44.9805C101.209 45.1914 101.548 45.2969 101.959 45.2969ZM108.695 40V40.7812H105.585V40H108.695ZM106.492 38.5625H107.414V44.2812C107.414 44.5417 107.451 44.737 107.527 44.8672C107.605 44.9948 107.704 45.0807 107.824 45.125C107.946 45.1667 108.075 45.1875 108.21 45.1875C108.312 45.1875 108.395 45.1823 108.46 45.1719C108.526 45.1589 108.578 45.1484 108.617 45.1406L108.804 45.9687C108.742 45.9922 108.654 46.0156 108.542 46.0391C108.431 46.0651 108.289 46.0781 108.117 46.0781C107.856 46.0781 107.601 46.0221 107.351 45.9102C107.104 45.7982 106.898 45.6276 106.734 45.3984C106.572 45.1693 106.492 44.8802 106.492 44.5312V38.5625ZM110.082 46V40H111.003V46H110.082ZM110.55 39C110.371 39 110.216 38.9388 110.085 38.8164C109.958 38.694 109.894 38.5469 109.894 38.375C109.894 38.2031 109.958 38.056 110.085 37.9336C110.216 37.8112 110.371 37.75 110.55 37.75C110.73 37.75 110.884 37.8112 111.011 37.9336C111.141 38.056 111.207 38.2031 111.207 38.375C111.207 38.5469 111.141 38.694 111.011 38.8164C110.884 38.9388 110.73 39 110.55 39ZM113.614 42.3906V46H112.692V40H113.583V40.9375H113.661C113.801 40.6328 114.015 40.388 114.301 40.2031C114.588 40.0156 114.958 39.9219 115.411 39.9219C115.817 39.9219 116.172 40.0052 116.477 40.1719C116.782 40.3359 117.019 40.5859 117.188 40.9219C117.357 41.2552 117.442 41.6771 117.442 42.1875V46H116.52V42.25C116.52 41.7786 116.398 41.4115 116.153 41.1484C115.908 40.8828 115.572 40.75 115.145 40.75C114.851 40.75 114.588 40.8138 114.356 40.9414C114.127 41.069 113.946 41.2552 113.813 41.5C113.68 41.7448 113.614 42.0417 113.614 42.3906ZM121.548 48.375C121.103 48.375 120.72 48.3177 120.4 48.2031C120.08 48.0911 119.813 47.9427 119.599 47.7578C119.388 47.5755 119.22 47.3802 119.095 47.1719L119.83 46.6563C119.913 46.7656 120.018 46.8906 120.146 47.0312C120.274 47.1745 120.448 47.2982 120.669 47.4023C120.893 47.5091 121.186 47.5625 121.548 47.5625C122.033 47.5625 122.432 47.4453 122.748 47.2109C123.063 46.9766 123.22 46.6094 123.22 46.1094V44.8906H123.142C123.074 45 122.978 45.1354 122.853 45.2969C122.731 45.4557 122.554 45.5977 122.322 45.7227C122.093 45.8451 121.783 45.9062 121.392 45.9062C120.908 45.9062 120.473 45.7917 120.087 45.5625C119.705 45.3333 119.401 45 119.177 44.5625C118.956 44.125 118.845 43.5937 118.845 42.9687C118.845 42.3542 118.953 41.819 119.169 41.3633C119.386 40.9049 119.686 40.5508 120.072 40.3008C120.457 40.0482 120.903 39.9219 121.408 39.9219C121.798 39.9219 122.108 39.987 122.337 40.1172C122.569 40.2448 122.746 40.3906 122.869 40.5547C122.994 40.7161 123.09 40.849 123.158 40.9531H123.251V40H124.142V46.1719C124.142 46.6875 124.025 47.1068 123.791 47.4297C123.559 47.7552 123.246 47.9935 122.853 48.1445C122.462 48.2982 122.028 48.375 121.548 48.375ZM121.517 45.0781C121.887 45.0781 122.199 44.9935 122.455 44.8242C122.71 44.6549 122.904 44.4115 123.037 44.0938C123.169 43.776 123.236 43.3958 123.236 42.9531C123.236 42.5208 123.171 42.1393 123.041 41.8086C122.91 41.4779 122.718 41.2187 122.462 41.0312C122.207 40.8437 121.892 40.75 121.517 40.75C121.126 40.75 120.801 40.849 120.541 41.0469C120.283 41.2448 120.089 41.5104 119.958 41.8438C119.831 42.1771 119.767 42.5469 119.767 42.9531C119.767 43.3698 119.832 43.7383 119.962 44.0586C120.095 44.3763 120.291 44.6263 120.548 44.8086C120.809 44.9883 121.132 45.0781 121.517 45.0781ZM133.423 40C133.376 39.6042 133.186 39.2969 132.853 39.0781C132.52 38.8594 132.111 38.75 131.626 38.75C131.272 38.75 130.962 38.8073 130.697 38.9219C130.434 39.0365 130.228 39.194 130.08 39.3945C129.934 39.5951 129.861 39.8229 129.861 40.0781C129.861 40.2917 129.912 40.4753 130.013 40.6289C130.117 40.7799 130.25 40.9062 130.412 41.0078C130.573 41.1068 130.742 41.1888 130.919 41.2539C131.097 41.3164 131.259 41.3672 131.408 41.4062L132.22 41.625C132.429 41.6797 132.66 41.7552 132.916 41.8516C133.173 41.9479 133.419 42.0794 133.654 42.2461C133.891 42.4102 134.086 42.6211 134.24 42.8789C134.393 43.1367 134.47 43.4531 134.47 43.8281C134.47 44.2604 134.357 44.651 134.13 45C133.906 45.349 133.578 45.6263 133.146 45.832C132.716 46.0378 132.194 46.1406 131.58 46.1406C131.007 46.1406 130.511 46.0482 130.091 45.8633C129.675 45.6784 129.347 45.4206 129.107 45.0898C128.87 44.7591 128.736 44.375 128.705 43.9375H129.705C129.731 44.2396 129.832 44.4896 130.009 44.6875C130.189 44.8828 130.416 45.0286 130.689 45.125C130.965 45.2187 131.262 45.2656 131.58 45.2656C131.949 45.2656 132.281 45.2057 132.576 45.0859C132.87 44.9635 133.103 44.7943 133.275 44.5781C133.447 44.3594 133.533 44.1042 133.533 43.8125C133.533 43.5469 133.458 43.3307 133.31 43.1641C133.162 42.9974 132.966 42.862 132.724 42.7578C132.482 42.6536 132.22 42.5625 131.939 42.4844L130.955 42.2031C130.33 42.0234 129.835 41.7669 129.47 41.4336C129.106 41.1003 128.923 40.6641 128.923 40.125C128.923 39.6771 129.044 39.2865 129.287 38.9531C129.531 38.6172 129.86 38.3568 130.271 38.1719C130.685 37.9844 131.147 37.8906 131.658 37.8906C132.173 37.8906 132.632 37.9831 133.033 38.168C133.434 38.3503 133.751 38.6003 133.986 38.918C134.223 39.2357 134.348 39.5964 134.361 40H133.423ZM136.532 48.25C136.375 48.25 136.236 48.237 136.114 48.2109C135.991 48.1875 135.907 48.1641 135.86 48.1406L136.094 47.3281C136.318 47.3854 136.516 47.4063 136.688 47.3906C136.86 47.375 137.012 47.2982 137.145 47.1602C137.28 47.0247 137.404 46.8047 137.516 46.5L137.688 46.0313L135.469 40H136.469L138.125 44.7812H138.188L139.844 40H140.844L138.297 46.875C138.183 47.1849 138.041 47.4414 137.872 47.6445C137.702 47.8503 137.506 48.0026 137.282 48.1016C137.06 48.2005 136.81 48.25 136.532 48.25ZM146.311 41.3437L145.483 41.5781C145.431 41.4401 145.354 41.306 145.252 41.1758C145.153 41.043 145.018 40.9336 144.846 40.8477C144.674 40.7617 144.454 40.7187 144.186 40.7187C143.819 40.7187 143.513 40.8034 143.268 40.9727C143.026 41.1393 142.905 41.3516 142.905 41.6094C142.905 41.8385 142.988 42.0195 143.155 42.1523C143.321 42.2852 143.582 42.3958 143.936 42.4844L144.827 42.7031C145.363 42.8333 145.763 43.0326 146.026 43.3008C146.289 43.5664 146.42 43.9089 146.42 44.3281C146.42 44.6719 146.321 44.9792 146.124 45.25C145.928 45.5208 145.655 45.7344 145.303 45.8906C144.952 46.0469 144.543 46.125 144.077 46.125C143.465 46.125 142.958 45.9922 142.557 45.7266C142.156 45.4609 141.902 45.0729 141.795 44.5625L142.67 44.3437C142.754 44.6667 142.911 44.9089 143.143 45.0703C143.377 45.2318 143.683 45.3125 144.061 45.3125C144.491 45.3125 144.832 45.2214 145.084 45.0391C145.34 44.8542 145.467 44.6328 145.467 44.375C145.467 44.1667 145.394 43.9922 145.249 43.8516C145.103 43.7083 144.879 43.6016 144.577 43.5312L143.577 43.2969C143.027 43.1667 142.624 42.9648 142.366 42.6914C142.111 42.4154 141.983 42.0703 141.983 41.6562C141.983 41.3177 142.078 41.0182 142.268 40.7578C142.461 40.4974 142.722 40.293 143.053 40.1445C143.387 39.9961 143.764 39.9219 144.186 39.9219C144.78 39.9219 145.246 40.0521 145.584 40.3125C145.926 40.5729 146.168 40.9167 146.311 41.3437ZM150.417 40V40.7812H147.308V40H150.417ZM148.214 38.5625H149.136V44.2812C149.136 44.5417 149.174 44.737 149.25 44.8672C149.328 44.9948 149.427 45.0807 149.546 45.125C149.669 45.1667 149.798 45.1875 149.933 45.1875C150.035 45.1875 150.118 45.1823 150.183 45.1719C150.248 45.1589 150.3 45.1484 150.339 45.1406L150.527 45.9687C150.464 45.9922 150.377 46.0156 150.265 46.0391C150.153 46.0651 150.011 46.0781 149.839 46.0781C149.579 46.0781 149.324 46.0221 149.074 45.9102C148.826 45.7982 148.621 45.6276 148.457 45.3984C148.295 45.1693 148.214 44.8802 148.214 44.5312V38.5625ZM154.255 46.125C153.677 46.125 153.179 45.9974 152.759 45.7422C152.343 45.4844 152.021 45.125 151.794 44.6641C151.57 44.2005 151.458 43.6615 151.458 43.0469C151.458 42.4323 151.57 41.8906 151.794 41.4219C152.021 40.9505 152.336 40.5833 152.74 40.3203C153.146 40.0547 153.62 39.9219 154.162 39.9219C154.474 39.9219 154.783 39.974 155.087 40.0781C155.392 40.1823 155.669 40.3516 155.919 40.5859C156.169 40.8177 156.369 41.125 156.517 41.5078C156.666 41.8906 156.74 42.362 156.74 42.9219V43.3125H152.115V42.5156H155.802C155.802 42.1771 155.735 41.875 155.599 41.6094C155.466 41.3437 155.276 41.1341 155.029 40.9805C154.784 40.8268 154.495 40.75 154.162 40.75C153.794 40.75 153.477 40.8411 153.208 41.0234C152.943 41.2031 152.738 41.4375 152.595 41.7266C152.452 42.0156 152.38 42.3255 152.38 42.6562V43.1875C152.38 43.6406 152.458 44.0247 152.615 44.3398C152.774 44.6523 152.994 44.8906 153.275 45.0547C153.556 45.2161 153.883 45.2969 154.255 45.2969C154.498 45.2969 154.716 45.263 154.912 45.1953C155.11 45.125 155.28 45.0208 155.423 44.8828C155.567 44.7422 155.677 44.5677 155.755 44.3594L156.646 44.6094C156.552 44.9115 156.395 45.1771 156.173 45.4062C155.952 45.6328 155.679 45.8099 155.353 45.9375C155.028 46.0625 154.662 46.125 154.255 46.125ZM158.142 46V40H159.033V40.9375H159.111C159.236 40.6172 159.438 40.3685 159.716 40.1914C159.995 40.0117 160.33 39.9219 160.72 39.9219C161.116 39.9219 161.445 40.0117 161.708 40.1914C161.974 40.3685 162.181 40.6172 162.33 40.9375H162.392C162.546 40.6276 162.776 40.3815 163.083 40.1992C163.391 40.0143 163.759 39.9219 164.189 39.9219C164.725 39.9219 165.164 40.0898 165.505 40.4258C165.847 40.7591 166.017 41.2786 166.017 41.9844V46H165.095V41.9844C165.095 41.5417 164.974 41.2253 164.732 41.0352C164.49 40.8451 164.205 40.75 163.876 40.75C163.455 40.75 163.128 40.8776 162.896 41.1328C162.664 41.3854 162.548 41.7057 162.548 42.0937V46H161.611V41.8906C161.611 41.5495 161.5 41.2747 161.279 41.0664C161.057 40.8555 160.772 40.75 160.423 40.75C160.184 40.75 159.96 40.8138 159.751 40.9414C159.546 41.069 159.379 41.2461 159.251 41.4727C159.126 41.6966 159.064 41.9557 159.064 42.25V46H158.142Z" fill="white"/>
</svg>
